%TF.GenerationSoftware,KiCad,Pcbnew,7.0.6*%
%TF.CreationDate,2023-07-13T17:48:17+01:00*%
%TF.ProjectId,L4O_Panel,4c344f5f-5061-46e6-956c-2e6b69636164,rev?*%
%TF.SameCoordinates,Original*%
%TF.FileFunction,Soldermask,Bot*%
%TF.FilePolarity,Negative*%
%FSLAX46Y46*%
G04 Gerber Fmt 4.6, Leading zero omitted, Abs format (unit mm)*
G04 Created by KiCad (PCBNEW 7.0.6) date 2023-07-13 17:48:17*
%MOMM*%
%LPD*%
G01*
G04 APERTURE LIST*
%ADD10C,0.150000*%
%ADD11C,0.200000*%
%ADD12O,5.000000X3.200000*%
%ADD13C,7.000000*%
G04 APERTURE END LIST*
D10*
X66100000Y-72000000D02*
G75*
G03*
X66100000Y-72000000I-6700000J0D01*
G01*
X66967525Y-48423929D02*
G75*
G03*
X59400000Y-63400000I-7567525J-5576071D01*
G01*
X66442258Y-51142272D02*
G75*
G03*
X59400000Y-61600000I-7042258J-2857728D01*
G01*
X50400000Y-115200000D02*
G75*
G03*
X55890359Y-119727505I8900000J5200000D01*
G01*
X52704073Y-115396717D02*
G75*
G03*
X59400000Y-101400000I6695927J5396717D01*
G01*
X63119532Y-119712110D02*
G75*
G03*
X59400000Y-99600000I-3719532J9712110D01*
G01*
X59400000Y-80600000D02*
G75*
G03*
X59400000Y-63400000I0J8600000D01*
G01*
X59400000Y-82400000D02*
G75*
G03*
X59400000Y-99600000I0J-8600000D01*
G01*
X59400000Y-82400000D02*
G75*
G03*
X59400000Y-61600000I0J10400000D01*
G01*
X59400000Y-80600000D02*
G75*
G03*
X59400000Y-101400000I0J-10400000D01*
G01*
X66200000Y-110000000D02*
G75*
G03*
X66200000Y-110000000I-6800000J0D01*
G01*
X66106713Y-91000000D02*
G75*
G03*
X66106713Y-91000000I-6706713J0D01*
G01*
X65503278Y-54000000D02*
G75*
G03*
X65503278Y-54000000I-6103278J0D01*
G01*
D11*
X67957142Y-159178742D02*
X67957142Y-157978742D01*
X67957142Y-157978742D02*
X67557142Y-158835885D01*
X67557142Y-158835885D02*
X67157142Y-157978742D01*
X67157142Y-157978742D02*
X67157142Y-159178742D01*
X66414285Y-159178742D02*
X66528570Y-159121600D01*
X66528570Y-159121600D02*
X66585713Y-159064457D01*
X66585713Y-159064457D02*
X66642856Y-158950171D01*
X66642856Y-158950171D02*
X66642856Y-158607314D01*
X66642856Y-158607314D02*
X66585713Y-158493028D01*
X66585713Y-158493028D02*
X66528570Y-158435885D01*
X66528570Y-158435885D02*
X66414285Y-158378742D01*
X66414285Y-158378742D02*
X66242856Y-158378742D01*
X66242856Y-158378742D02*
X66128570Y-158435885D01*
X66128570Y-158435885D02*
X66071428Y-158493028D01*
X66071428Y-158493028D02*
X66014285Y-158607314D01*
X66014285Y-158607314D02*
X66014285Y-158950171D01*
X66014285Y-158950171D02*
X66071428Y-159064457D01*
X66071428Y-159064457D02*
X66128570Y-159121600D01*
X66128570Y-159121600D02*
X66242856Y-159178742D01*
X66242856Y-159178742D02*
X66414285Y-159178742D01*
X64985714Y-158378742D02*
X64985714Y-159178742D01*
X65499999Y-158378742D02*
X65499999Y-159007314D01*
X65499999Y-159007314D02*
X65442856Y-159121600D01*
X65442856Y-159121600D02*
X65328571Y-159178742D01*
X65328571Y-159178742D02*
X65157142Y-159178742D01*
X65157142Y-159178742D02*
X65042856Y-159121600D01*
X65042856Y-159121600D02*
X64985714Y-159064457D01*
X64414285Y-158378742D02*
X64414285Y-159178742D01*
X64414285Y-158493028D02*
X64357142Y-158435885D01*
X64357142Y-158435885D02*
X64242857Y-158378742D01*
X64242857Y-158378742D02*
X64071428Y-158378742D01*
X64071428Y-158378742D02*
X63957142Y-158435885D01*
X63957142Y-158435885D02*
X63900000Y-158550171D01*
X63900000Y-158550171D02*
X63900000Y-159178742D01*
X63500000Y-158378742D02*
X63042857Y-158378742D01*
X63328571Y-157978742D02*
X63328571Y-159007314D01*
X63328571Y-159007314D02*
X63271428Y-159121600D01*
X63271428Y-159121600D02*
X63157143Y-159178742D01*
X63157143Y-159178742D02*
X63042857Y-159178742D01*
X62642857Y-158378742D02*
X62642857Y-159407314D01*
X62642857Y-159407314D02*
X62700000Y-159521600D01*
X62700000Y-159521600D02*
X62814286Y-159578742D01*
X62814286Y-159578742D02*
X62871429Y-159578742D01*
X62642857Y-157978742D02*
X62700000Y-158035885D01*
X62700000Y-158035885D02*
X62642857Y-158093028D01*
X62642857Y-158093028D02*
X62585714Y-158035885D01*
X62585714Y-158035885D02*
X62642857Y-157978742D01*
X62642857Y-157978742D02*
X62642857Y-158093028D01*
X61900000Y-159178742D02*
X62014285Y-159121600D01*
X62014285Y-159121600D02*
X62071428Y-159064457D01*
X62071428Y-159064457D02*
X62128571Y-158950171D01*
X62128571Y-158950171D02*
X62128571Y-158607314D01*
X62128571Y-158607314D02*
X62071428Y-158493028D01*
X62071428Y-158493028D02*
X62014285Y-158435885D01*
X62014285Y-158435885D02*
X61900000Y-158378742D01*
X61900000Y-158378742D02*
X61728571Y-158378742D01*
X61728571Y-158378742D02*
X61614285Y-158435885D01*
X61614285Y-158435885D02*
X61557143Y-158493028D01*
X61557143Y-158493028D02*
X61500000Y-158607314D01*
X61500000Y-158607314D02*
X61500000Y-158950171D01*
X61500000Y-158950171D02*
X61557143Y-159064457D01*
X61557143Y-159064457D02*
X61614285Y-159121600D01*
X61614285Y-159121600D02*
X61728571Y-159178742D01*
X61728571Y-159178742D02*
X61900000Y-159178742D01*
X61100000Y-158378742D02*
X60814286Y-159178742D01*
X60528571Y-158378742D02*
X60814286Y-159178742D01*
X60814286Y-159178742D02*
X60928571Y-159464457D01*
X60928571Y-159464457D02*
X60985714Y-159521600D01*
X60985714Y-159521600D02*
X61100000Y-159578742D01*
X67557141Y-161110742D02*
X67557141Y-159910742D01*
X67557141Y-159910742D02*
X67157141Y-160767885D01*
X67157141Y-160767885D02*
X66757141Y-159910742D01*
X66757141Y-159910742D02*
X66757141Y-161110742D01*
X66014284Y-161110742D02*
X66128569Y-161053600D01*
X66128569Y-161053600D02*
X66185712Y-160996457D01*
X66185712Y-160996457D02*
X66242855Y-160882171D01*
X66242855Y-160882171D02*
X66242855Y-160539314D01*
X66242855Y-160539314D02*
X66185712Y-160425028D01*
X66185712Y-160425028D02*
X66128569Y-160367885D01*
X66128569Y-160367885D02*
X66014284Y-160310742D01*
X66014284Y-160310742D02*
X65842855Y-160310742D01*
X65842855Y-160310742D02*
X65728569Y-160367885D01*
X65728569Y-160367885D02*
X65671427Y-160425028D01*
X65671427Y-160425028D02*
X65614284Y-160539314D01*
X65614284Y-160539314D02*
X65614284Y-160882171D01*
X65614284Y-160882171D02*
X65671427Y-160996457D01*
X65671427Y-160996457D02*
X65728569Y-161053600D01*
X65728569Y-161053600D02*
X65842855Y-161110742D01*
X65842855Y-161110742D02*
X66014284Y-161110742D01*
X64585713Y-161110742D02*
X64585713Y-159910742D01*
X64585713Y-161053600D02*
X64699998Y-161110742D01*
X64699998Y-161110742D02*
X64928570Y-161110742D01*
X64928570Y-161110742D02*
X65042855Y-161053600D01*
X65042855Y-161053600D02*
X65099998Y-160996457D01*
X65099998Y-160996457D02*
X65157141Y-160882171D01*
X65157141Y-160882171D02*
X65157141Y-160539314D01*
X65157141Y-160539314D02*
X65099998Y-160425028D01*
X65099998Y-160425028D02*
X65042855Y-160367885D01*
X65042855Y-160367885D02*
X64928570Y-160310742D01*
X64928570Y-160310742D02*
X64699998Y-160310742D01*
X64699998Y-160310742D02*
X64585713Y-160367885D01*
X63499999Y-160310742D02*
X63499999Y-161110742D01*
X64014284Y-160310742D02*
X64014284Y-160939314D01*
X64014284Y-160939314D02*
X63957141Y-161053600D01*
X63957141Y-161053600D02*
X63842856Y-161110742D01*
X63842856Y-161110742D02*
X63671427Y-161110742D01*
X63671427Y-161110742D02*
X63557141Y-161053600D01*
X63557141Y-161053600D02*
X63499999Y-160996457D01*
X62757142Y-161110742D02*
X62871427Y-161053600D01*
X62871427Y-161053600D02*
X62928570Y-160939314D01*
X62928570Y-160939314D02*
X62928570Y-159910742D01*
X61785714Y-161110742D02*
X61785714Y-160482171D01*
X61785714Y-160482171D02*
X61842856Y-160367885D01*
X61842856Y-160367885D02*
X61957142Y-160310742D01*
X61957142Y-160310742D02*
X62185714Y-160310742D01*
X62185714Y-160310742D02*
X62299999Y-160367885D01*
X61785714Y-161053600D02*
X61899999Y-161110742D01*
X61899999Y-161110742D02*
X62185714Y-161110742D01*
X62185714Y-161110742D02*
X62299999Y-161053600D01*
X62299999Y-161053600D02*
X62357142Y-160939314D01*
X62357142Y-160939314D02*
X62357142Y-160825028D01*
X62357142Y-160825028D02*
X62299999Y-160710742D01*
X62299999Y-160710742D02*
X62185714Y-160653600D01*
X62185714Y-160653600D02*
X61899999Y-160653600D01*
X61899999Y-160653600D02*
X61785714Y-160596457D01*
X61214285Y-161110742D02*
X61214285Y-160310742D01*
X61214285Y-160539314D02*
X61157142Y-160425028D01*
X61157142Y-160425028D02*
X61100000Y-160367885D01*
X61100000Y-160367885D02*
X60985714Y-160310742D01*
X60985714Y-160310742D02*
X60871428Y-160310742D01*
%TO.C,kibuzzard-64B02A09*%
G36*
X52196665Y-109155394D02*
G01*
X52196665Y-110303153D01*
X52196665Y-112437907D01*
X52196665Y-113904561D01*
X52196665Y-115703728D01*
X52190421Y-115830823D01*
X52171750Y-115956695D01*
X52140831Y-116080130D01*
X52097962Y-116199940D01*
X52043556Y-116314971D01*
X51978137Y-116424116D01*
X51902336Y-116526323D01*
X51816881Y-116620608D01*
X51722595Y-116706063D01*
X51620388Y-116781865D01*
X51511244Y-116847284D01*
X51396212Y-116901690D01*
X51276402Y-116944559D01*
X51152967Y-116975478D01*
X51027095Y-116994149D01*
X50900000Y-117000393D01*
X50772905Y-116994149D01*
X50647033Y-116975478D01*
X50523598Y-116944559D01*
X50403788Y-116901690D01*
X50288756Y-116847284D01*
X50179612Y-116781865D01*
X50077405Y-116706063D01*
X49983119Y-116620608D01*
X49897664Y-116526323D01*
X49821863Y-116424116D01*
X49756444Y-116314971D01*
X49702038Y-116199940D01*
X49659169Y-116080130D01*
X49628250Y-115956695D01*
X49609579Y-115830823D01*
X49603335Y-115703728D01*
X49603335Y-113904561D01*
X49603335Y-113065155D01*
X49940679Y-113065155D01*
X51541744Y-113065155D01*
X51541744Y-113904561D01*
X51859321Y-113904561D01*
X51859321Y-112669830D01*
X49940679Y-112669830D01*
X49940679Y-113065155D01*
X49603335Y-113065155D01*
X49603335Y-112435271D01*
X49940679Y-112435271D01*
X50260892Y-112435271D01*
X50260892Y-111547108D01*
X50718151Y-111547108D01*
X50718151Y-112306132D01*
X51027822Y-112306132D01*
X51027822Y-111547108D01*
X51541744Y-111547108D01*
X51541744Y-112437907D01*
X51859321Y-112437907D01*
X51859321Y-111151783D01*
X49940679Y-111151783D01*
X49940679Y-112435271D01*
X49603335Y-112435271D01*
X49603335Y-110971252D01*
X49940679Y-110971252D01*
X51859321Y-110303153D01*
X51859321Y-109890698D01*
X49940679Y-109225234D01*
X49940679Y-109664045D01*
X51383614Y-110096267D01*
X49940679Y-110531124D01*
X49940679Y-110971252D01*
X49603335Y-110971252D01*
X49603335Y-109152758D01*
X49940679Y-109152758D01*
X50260892Y-109152758D01*
X50260892Y-108264595D01*
X50718151Y-108264595D01*
X50718151Y-109023619D01*
X51027822Y-109023619D01*
X51027822Y-108264595D01*
X51541744Y-108264595D01*
X51541744Y-109155394D01*
X51859321Y-109155394D01*
X51859321Y-107869271D01*
X49940679Y-107869271D01*
X49940679Y-109152758D01*
X49603335Y-109152758D01*
X49603335Y-106803212D01*
X49940679Y-106803212D01*
X51541744Y-106803212D01*
X51541744Y-107642618D01*
X51859321Y-107642618D01*
X51859321Y-106407887D01*
X49940679Y-106407887D01*
X49940679Y-106803212D01*
X49603335Y-106803212D01*
X49603335Y-106407887D01*
X49603335Y-104496272D01*
X49609579Y-104369177D01*
X49628250Y-104243306D01*
X49659169Y-104119870D01*
X49702038Y-104000060D01*
X49756444Y-103885029D01*
X49821862Y-103775884D01*
X49897664Y-103673677D01*
X49983119Y-103579392D01*
X50077404Y-103493937D01*
X50179612Y-103418135D01*
X50288756Y-103352716D01*
X50403788Y-103298310D01*
X50523598Y-103255441D01*
X50647033Y-103224522D01*
X50772905Y-103205851D01*
X50900000Y-103199607D01*
X51027095Y-103205851D01*
X51152967Y-103224522D01*
X51276402Y-103255441D01*
X51396212Y-103298310D01*
X51511244Y-103352716D01*
X51620388Y-103418135D01*
X51722596Y-103493937D01*
X51816881Y-103579392D01*
X51902336Y-103673677D01*
X51978138Y-103775884D01*
X52043556Y-103885029D01*
X52097962Y-104000060D01*
X52140831Y-104119870D01*
X52171750Y-104243306D01*
X52190421Y-104369177D01*
X52196665Y-104496272D01*
X52196665Y-106407887D01*
X52196665Y-107642618D01*
X52196665Y-109155394D01*
G37*
%TO.C,kibuzzard-64B02A00*%
G36*
X68127095Y-84111342D02*
G01*
X68252967Y-84130013D01*
X68376402Y-84160932D01*
X68496212Y-84203801D01*
X68611244Y-84258207D01*
X68720388Y-84323625D01*
X68822595Y-84399427D01*
X68916881Y-84484882D01*
X69002336Y-84579167D01*
X69078137Y-84681374D01*
X69143556Y-84790519D01*
X69197962Y-84905551D01*
X69240831Y-85025361D01*
X69271750Y-85148796D01*
X69290421Y-85274667D01*
X69296665Y-85401763D01*
X69296665Y-85964002D01*
X69296665Y-95923549D01*
X69296665Y-96598237D01*
X69290421Y-96725332D01*
X69271750Y-96851204D01*
X69240831Y-96974639D01*
X69197962Y-97094449D01*
X69143556Y-97209481D01*
X69078138Y-97318625D01*
X69002336Y-97420833D01*
X68916881Y-97515118D01*
X68822596Y-97600573D01*
X68720388Y-97676375D01*
X68611244Y-97741793D01*
X68496212Y-97796199D01*
X68376402Y-97839068D01*
X68252967Y-97869987D01*
X68127095Y-97888658D01*
X68000000Y-97894902D01*
X67872905Y-97888658D01*
X67747033Y-97869987D01*
X67623598Y-97839068D01*
X67503788Y-97796199D01*
X67388756Y-97741793D01*
X67279612Y-97676375D01*
X67177404Y-97600573D01*
X67083119Y-97515118D01*
X66997664Y-97420833D01*
X66921862Y-97318625D01*
X66856444Y-97209481D01*
X66802038Y-97094449D01*
X66759169Y-96974639D01*
X66728250Y-96851204D01*
X66709579Y-96725332D01*
X66703335Y-96598237D01*
X66703335Y-95923549D01*
X66703335Y-95528225D01*
X67040679Y-95528225D01*
X67040679Y-95923549D01*
X68959321Y-95923549D01*
X68959321Y-94674323D01*
X68639108Y-94674323D01*
X68639108Y-95528225D01*
X68143635Y-95528225D01*
X68143635Y-94769201D01*
X67824739Y-94769201D01*
X67824739Y-95528225D01*
X67040679Y-95528225D01*
X66703335Y-95528225D01*
X66703335Y-94186756D01*
X67040679Y-94186756D01*
X67040679Y-94607118D01*
X68959321Y-93892898D01*
X68959321Y-93526564D01*
X67040679Y-92808391D01*
X67040679Y-93228753D01*
X67436003Y-93361845D01*
X67436003Y-94054981D01*
X67040679Y-94186756D01*
X66703335Y-94186756D01*
X66703335Y-92629177D01*
X67040679Y-92629177D01*
X68959321Y-92629177D01*
X68959321Y-92038825D01*
X68946656Y-91876083D01*
X68908661Y-91725201D01*
X68845336Y-91586179D01*
X68758657Y-91462823D01*
X68650602Y-91358940D01*
X68521170Y-91274531D01*
X68374680Y-91212304D01*
X68215452Y-91174968D01*
X68043486Y-91162522D01*
X67955197Y-91162522D01*
X67783450Y-91174748D01*
X67624881Y-91211425D01*
X67479489Y-91272554D01*
X67351082Y-91355939D01*
X67243466Y-91459382D01*
X67156641Y-91582884D01*
X67092803Y-91722126D01*
X67054149Y-91872789D01*
X67040679Y-92034872D01*
X67040679Y-92629177D01*
X66703335Y-92629177D01*
X66703335Y-89589130D01*
X67040679Y-89589130D01*
X67040679Y-90875253D01*
X68959321Y-90875253D01*
X68959321Y-89591765D01*
X68639108Y-89591765D01*
X68639108Y-90479928D01*
X68181849Y-90479928D01*
X68181849Y-89720905D01*
X67872178Y-89720905D01*
X67872178Y-90479928D01*
X67358256Y-90479928D01*
X67358256Y-89589130D01*
X67040679Y-89589130D01*
X66703335Y-89589130D01*
X66703335Y-88641668D01*
X67708777Y-88641668D01*
X67708777Y-89383561D01*
X68015813Y-89383561D01*
X68015813Y-88641668D01*
X67708777Y-88641668D01*
X66703335Y-88641668D01*
X66703335Y-87890551D01*
X67040679Y-87890551D01*
X67040679Y-88285876D01*
X68959321Y-88285876D01*
X68959321Y-87890551D01*
X67040679Y-87890551D01*
X66703335Y-87890551D01*
X66703335Y-85964002D01*
X67040679Y-85964002D01*
X67040679Y-86359327D01*
X68303082Y-87128892D01*
X67040679Y-87128892D01*
X67040679Y-87524217D01*
X68959321Y-87524217D01*
X68959321Y-87128892D01*
X67694282Y-86358009D01*
X68959321Y-86358009D01*
X68959321Y-85964002D01*
X67040679Y-85964002D01*
X66703335Y-85964002D01*
X66703335Y-85401763D01*
X66709579Y-85274667D01*
X66728250Y-85148796D01*
X66759169Y-85025361D01*
X66802038Y-84905551D01*
X66856444Y-84790519D01*
X66921863Y-84681374D01*
X66997664Y-84579167D01*
X67083119Y-84484882D01*
X67177405Y-84399427D01*
X67279612Y-84323625D01*
X67388756Y-84258207D01*
X67503788Y-84203801D01*
X67623598Y-84160932D01*
X67747033Y-84130013D01*
X67872905Y-84111342D01*
X68000000Y-84105098D01*
X68127095Y-84111342D01*
G37*
G36*
X68224091Y-91576588D02*
G01*
X68371898Y-91616999D01*
X68488226Y-91684351D01*
X68601388Y-91833586D01*
X68639108Y-92038825D01*
X68639108Y-92233852D01*
X67358256Y-92233852D01*
X67358256Y-92042779D01*
X67396142Y-91838198D01*
X67509797Y-91688304D01*
X67625320Y-91619928D01*
X67769833Y-91578199D01*
X67943337Y-91563118D01*
X68044803Y-91563118D01*
X68224091Y-91576588D01*
G37*
G36*
X68474390Y-93709731D02*
G01*
X67756216Y-93948244D01*
X67756216Y-93468583D01*
X68474390Y-93709731D01*
G37*
%TO.C,kibuzzard-64B029EB*%
G36*
X68029679Y-46961394D02*
G01*
X68158108Y-46980445D01*
X68284052Y-47011992D01*
X68406298Y-47055732D01*
X68523667Y-47111244D01*
X68635030Y-47177993D01*
X68739315Y-47255335D01*
X68835516Y-47342527D01*
X68922708Y-47438728D01*
X69000051Y-47543013D01*
X69066799Y-47654376D01*
X69122311Y-47771746D01*
X69166051Y-47893991D01*
X69197599Y-48019935D01*
X69216649Y-48148365D01*
X69223020Y-48278043D01*
X69223020Y-49964762D01*
X69223020Y-57947686D01*
X69223020Y-59521956D01*
X69216649Y-59651635D01*
X69197599Y-59780065D01*
X69166051Y-59906009D01*
X69122311Y-60028254D01*
X69066799Y-60145624D01*
X69000051Y-60256987D01*
X68922708Y-60361271D01*
X68835516Y-60457473D01*
X68739315Y-60544665D01*
X68635031Y-60622007D01*
X68523667Y-60688756D01*
X68406298Y-60744268D01*
X68284052Y-60788008D01*
X68158108Y-60819555D01*
X68029679Y-60838606D01*
X67900000Y-60844976D01*
X67770321Y-60838606D01*
X67641892Y-60819555D01*
X67515948Y-60788008D01*
X67393702Y-60744268D01*
X67276333Y-60688756D01*
X67164969Y-60622007D01*
X67060685Y-60544665D01*
X66964484Y-60457473D01*
X66877292Y-60361271D01*
X66799949Y-60256987D01*
X66733201Y-60145624D01*
X66677689Y-60028254D01*
X66633949Y-59906009D01*
X66602401Y-59780065D01*
X66583351Y-59651635D01*
X66576980Y-59521956D01*
X66576980Y-57947686D01*
X66576980Y-57171531D01*
X66914324Y-57171531D01*
X66934584Y-57383030D01*
X66995365Y-57574763D01*
X67091396Y-57735034D01*
X67217406Y-57852149D01*
X67369606Y-57923801D01*
X67544208Y-57947686D01*
X67544208Y-57551043D01*
X67405268Y-57527324D01*
X67306025Y-57456165D01*
X67246479Y-57337568D01*
X67226630Y-57171531D01*
X67240961Y-57046016D01*
X67283952Y-56951467D01*
X67444059Y-56872402D01*
X67616025Y-56951467D01*
X67677630Y-57062158D01*
X67742529Y-57236101D01*
X67808581Y-57420257D01*
X67873645Y-57561585D01*
X68004981Y-57743142D01*
X68163550Y-57852076D01*
X68349352Y-57888387D01*
X68496446Y-57866479D01*
X68626739Y-57800757D01*
X68735288Y-57694019D01*
X68817153Y-57549067D01*
X68868546Y-57374959D01*
X68885676Y-57180756D01*
X68867063Y-56986388D01*
X68811223Y-56814421D01*
X68721452Y-56671610D01*
X68601042Y-56564708D01*
X68456090Y-56497997D01*
X68292689Y-56475760D01*
X68292689Y-56871085D01*
X68409804Y-56891839D01*
X68497599Y-56954103D01*
X68552450Y-57053922D01*
X68570734Y-57187344D01*
X68555415Y-57316154D01*
X68509459Y-57412680D01*
X68348035Y-57493062D01*
X68191223Y-57398843D01*
X68129947Y-57282387D01*
X68072625Y-57121457D01*
X67999563Y-56916913D01*
X67915667Y-56753073D01*
X67820935Y-56629937D01*
X67652263Y-56514304D01*
X67446694Y-56475760D01*
X67292591Y-56496698D01*
X67162353Y-56559510D01*
X67055982Y-56664198D01*
X66977283Y-56804319D01*
X66930064Y-56973430D01*
X66914324Y-57171531D01*
X66576980Y-57171531D01*
X66576980Y-55812932D01*
X66940679Y-55812932D01*
X66940679Y-56208257D01*
X68859321Y-56208257D01*
X68859321Y-55459775D01*
X68839555Y-55256677D01*
X68780256Y-55079605D01*
X68684555Y-54934488D01*
X68555580Y-54827256D01*
X68399921Y-54761039D01*
X68224166Y-54738967D01*
X68049418Y-54760417D01*
X67901171Y-54824767D01*
X67779426Y-54932017D01*
X67689014Y-55077189D01*
X67634766Y-55255305D01*
X67616684Y-55466364D01*
X67616684Y-55812932D01*
X66940679Y-55812932D01*
X66576980Y-55812932D01*
X66576980Y-53181387D01*
X66940679Y-53181387D01*
X66940679Y-54467510D01*
X68859321Y-54467510D01*
X68859321Y-53184023D01*
X68539108Y-53184023D01*
X68539108Y-54072186D01*
X68081849Y-54072186D01*
X68081849Y-53313162D01*
X67772178Y-53313162D01*
X67772178Y-54072186D01*
X67258256Y-54072186D01*
X67258256Y-53181387D01*
X66940679Y-53181387D01*
X66576980Y-53181387D01*
X66576980Y-51663341D01*
X66940679Y-51663341D01*
X66940679Y-52949464D01*
X68859321Y-52949464D01*
X68859321Y-51665976D01*
X68539108Y-51665976D01*
X68539108Y-52554139D01*
X68081849Y-52554139D01*
X68081849Y-51795115D01*
X67772178Y-51795115D01*
X67772178Y-52554139D01*
X67258256Y-52554139D01*
X67258256Y-51663341D01*
X66940679Y-51663341D01*
X66576980Y-51663341D01*
X66576980Y-51431417D01*
X66940679Y-51431417D01*
X68859321Y-51431417D01*
X68859321Y-50841065D01*
X68846656Y-50678323D01*
X68808661Y-50527441D01*
X68745336Y-50388418D01*
X68658657Y-50265062D01*
X68550602Y-50161180D01*
X68421170Y-50076771D01*
X68274680Y-50014544D01*
X68115452Y-49977207D01*
X67943486Y-49964762D01*
X67855197Y-49964762D01*
X67683450Y-49976988D01*
X67524881Y-50013665D01*
X67379489Y-50074794D01*
X67251082Y-50158178D01*
X67143466Y-50261622D01*
X67056641Y-50385124D01*
X66992803Y-50524366D01*
X66954149Y-50675029D01*
X66940679Y-50837112D01*
X66940679Y-51431417D01*
X66576980Y-51431417D01*
X66576980Y-49964762D01*
X66576980Y-48278043D01*
X66583351Y-48148365D01*
X66602401Y-48019935D01*
X66633949Y-47893991D01*
X66677689Y-47771746D01*
X66733201Y-47654376D01*
X66799949Y-47543013D01*
X66877292Y-47438728D01*
X66964484Y-47342527D01*
X67060685Y-47255335D01*
X67164970Y-47177993D01*
X67276333Y-47111244D01*
X67393702Y-47055732D01*
X67515948Y-47011992D01*
X67641892Y-46980445D01*
X67770321Y-46961394D01*
X67900000Y-46955024D01*
X68029679Y-46961394D01*
G37*
G36*
X68124091Y-50378828D02*
G01*
X68271898Y-50419239D01*
X68388226Y-50486591D01*
X68501388Y-50635826D01*
X68539108Y-50841065D01*
X68539108Y-51036092D01*
X67258256Y-51036092D01*
X67258256Y-50845018D01*
X67296142Y-50640438D01*
X67409797Y-50490544D01*
X67525320Y-50422167D01*
X67669833Y-50380439D01*
X67843337Y-50365358D01*
X67944803Y-50365358D01*
X68124091Y-50378828D01*
G37*
G36*
X68349023Y-55158999D02*
G01*
X68449501Y-55221263D01*
X68515389Y-55320094D01*
X68539108Y-55450551D01*
X68539108Y-55812932D01*
X67936897Y-55812932D01*
X67936897Y-55459775D01*
X67955345Y-55321577D01*
X68010691Y-55220604D01*
X68100298Y-55158835D01*
X68221531Y-55138245D01*
X68349023Y-55158999D01*
G37*
%TO.C,kibuzzard-64B029DF*%
G36*
X52223020Y-69177013D02*
G01*
X52223020Y-70917760D01*
X52223020Y-73530856D01*
X52223020Y-74021059D01*
X52223020Y-75578638D01*
X52223020Y-77045293D01*
X52223020Y-77719980D01*
X52216649Y-77849659D01*
X52197599Y-77978088D01*
X52166051Y-78104032D01*
X52122311Y-78226278D01*
X52066799Y-78343647D01*
X52000051Y-78455011D01*
X51922708Y-78559295D01*
X51835516Y-78655496D01*
X51739315Y-78742688D01*
X51635030Y-78820031D01*
X51523667Y-78886779D01*
X51406298Y-78942291D01*
X51284052Y-78986031D01*
X51158108Y-79017578D01*
X51029679Y-79036629D01*
X50900000Y-79043000D01*
X50770321Y-79036629D01*
X50641892Y-79017578D01*
X50515948Y-78986031D01*
X50393702Y-78942291D01*
X50276333Y-78886779D01*
X50164970Y-78820031D01*
X50060685Y-78742688D01*
X49964484Y-78655496D01*
X49877292Y-78559295D01*
X49799949Y-78455011D01*
X49733201Y-78343647D01*
X49677689Y-78226278D01*
X49633949Y-78104032D01*
X49602401Y-77978088D01*
X49583351Y-77849659D01*
X49576980Y-77719980D01*
X49576980Y-77045293D01*
X49576980Y-76168989D01*
X49940679Y-76168989D01*
X49953344Y-76331732D01*
X49991339Y-76482614D01*
X50054664Y-76621636D01*
X50141343Y-76744992D01*
X50249398Y-76848875D01*
X50378830Y-76933284D01*
X50525320Y-76995511D01*
X50684548Y-77032847D01*
X50856514Y-77045293D01*
X50944803Y-77045293D01*
X51116550Y-77033067D01*
X51275119Y-76996389D01*
X51420511Y-76935261D01*
X51548918Y-76851876D01*
X51656534Y-76748433D01*
X51743359Y-76624931D01*
X51807197Y-76485689D01*
X51845851Y-76335026D01*
X51859321Y-76172943D01*
X51859321Y-75578638D01*
X49940679Y-75578638D01*
X49940679Y-76168989D01*
X49576980Y-76168989D01*
X49576980Y-74681251D01*
X49940679Y-74681251D01*
X51859321Y-75399424D01*
X51859321Y-74979062D01*
X51463997Y-74845969D01*
X51463997Y-74152833D01*
X51859321Y-74021059D01*
X51859321Y-73600697D01*
X49940679Y-74314917D01*
X49940679Y-74681251D01*
X49576980Y-74681251D01*
X49576980Y-73528220D01*
X49940679Y-73528220D01*
X50260892Y-73528220D01*
X50260892Y-72640058D01*
X50718151Y-72640058D01*
X50718151Y-73399081D01*
X51027822Y-73399081D01*
X51027822Y-72640058D01*
X51541744Y-72640058D01*
X51541744Y-73530856D01*
X51859321Y-73530856D01*
X51859321Y-72244733D01*
X49940679Y-72244733D01*
X49940679Y-73528220D01*
X49576980Y-73528220D01*
X49576980Y-71235337D01*
X49940679Y-71235337D01*
X49957517Y-71444713D01*
X50008030Y-71619534D01*
X50092220Y-71759801D01*
X50207157Y-71862293D01*
X50349913Y-71923788D01*
X50520488Y-71944286D01*
X50700526Y-71923037D01*
X50847949Y-71859291D01*
X50965723Y-71752389D01*
X51056812Y-71601671D01*
X51840873Y-72016762D01*
X51859321Y-72016762D01*
X51859321Y-71592447D01*
X51156961Y-71232702D01*
X51156961Y-70917760D01*
X51859321Y-70917760D01*
X51859321Y-70522435D01*
X49940679Y-70522435D01*
X49940679Y-71235337D01*
X49576980Y-71235337D01*
X49576980Y-69530170D01*
X49940679Y-69530170D01*
X49960445Y-69733268D01*
X50019744Y-69910341D01*
X50115445Y-70055458D01*
X50244420Y-70162689D01*
X50400079Y-70228906D01*
X50575834Y-70250979D01*
X50750582Y-70229529D01*
X50898829Y-70165179D01*
X51020574Y-70057928D01*
X51110986Y-69912756D01*
X51165234Y-69734641D01*
X51183316Y-69523581D01*
X51183316Y-69177013D01*
X51859321Y-69177013D01*
X51859321Y-68781688D01*
X49940679Y-68781688D01*
X49940679Y-69530170D01*
X49576980Y-69530170D01*
X49576980Y-67809190D01*
X49914324Y-67809190D01*
X49932937Y-68003558D01*
X49988777Y-68175524D01*
X50078548Y-68318335D01*
X50198958Y-68425237D01*
X50343910Y-68491948D01*
X50507311Y-68514185D01*
X50507311Y-68118861D01*
X50390196Y-68098106D01*
X50302401Y-68035843D01*
X50247550Y-67936023D01*
X50229266Y-67802601D01*
X50244585Y-67673791D01*
X50290541Y-67577266D01*
X50451965Y-67496883D01*
X50608777Y-67591102D01*
X50670053Y-67707558D01*
X50727375Y-67868488D01*
X50800437Y-68073032D01*
X50884333Y-68236872D01*
X50979065Y-68360009D01*
X51147737Y-68475641D01*
X51353306Y-68514185D01*
X51507409Y-68493248D01*
X51637647Y-68430435D01*
X51744018Y-68325747D01*
X51822717Y-68185627D01*
X51869936Y-68016516D01*
X51885676Y-67818414D01*
X51865416Y-67606915D01*
X51804635Y-67415183D01*
X51708604Y-67254912D01*
X51582594Y-67137797D01*
X51430394Y-67066144D01*
X51255792Y-67042260D01*
X51255792Y-67438902D01*
X51394732Y-67462622D01*
X51493975Y-67533780D01*
X51553521Y-67652378D01*
X51573370Y-67818414D01*
X51559039Y-67943930D01*
X51516048Y-68038478D01*
X51355941Y-68117543D01*
X51183975Y-68038478D01*
X51122370Y-67927787D01*
X51057471Y-67753844D01*
X50991419Y-67569689D01*
X50926355Y-67428360D01*
X50795019Y-67246804D01*
X50636450Y-67137870D01*
X50450648Y-67101558D01*
X50303554Y-67123466D01*
X50173261Y-67189189D01*
X50064712Y-67295926D01*
X49982847Y-67440879D01*
X49931454Y-67614986D01*
X49914324Y-67809190D01*
X49576980Y-67809190D01*
X49576980Y-67042260D01*
X49576980Y-66480020D01*
X49583351Y-66350342D01*
X49602401Y-66221912D01*
X49633949Y-66095968D01*
X49677689Y-65973722D01*
X49733201Y-65856353D01*
X49799949Y-65744990D01*
X49877292Y-65640705D01*
X49964484Y-65544504D01*
X50060685Y-65457312D01*
X50164969Y-65379969D01*
X50276333Y-65313221D01*
X50393702Y-65257709D01*
X50515948Y-65213969D01*
X50641892Y-65182422D01*
X50770321Y-65163371D01*
X50900000Y-65157000D01*
X51029679Y-65163371D01*
X51158108Y-65182422D01*
X51284052Y-65213969D01*
X51406298Y-65257709D01*
X51523667Y-65313221D01*
X51635031Y-65379969D01*
X51739315Y-65457312D01*
X51835516Y-65544504D01*
X51922708Y-65640705D01*
X52000051Y-65744990D01*
X52066799Y-65856353D01*
X52122311Y-65973722D01*
X52166051Y-66095968D01*
X52197599Y-66221912D01*
X52216649Y-66350342D01*
X52223020Y-66480020D01*
X52223020Y-67042260D01*
X52223020Y-67818414D01*
X52223020Y-69177013D01*
G37*
G36*
X51541744Y-76165036D02*
G01*
X51503858Y-76369617D01*
X51390203Y-76519511D01*
X51274680Y-76587887D01*
X51130167Y-76629616D01*
X50956663Y-76644697D01*
X50855197Y-76644697D01*
X50675909Y-76631227D01*
X50528102Y-76590816D01*
X50411774Y-76523464D01*
X50298612Y-76374229D01*
X50260892Y-76168989D01*
X50260892Y-75973963D01*
X51541744Y-75973963D01*
X51541744Y-76165036D01*
G37*
G36*
X50863103Y-69530170D02*
G01*
X50844655Y-69668369D01*
X50789309Y-69769341D01*
X50699702Y-69831111D01*
X50578469Y-69851701D01*
X50450977Y-69830946D01*
X50350499Y-69768682D01*
X50284611Y-69669851D01*
X50260892Y-69539394D01*
X50260892Y-69177013D01*
X50863103Y-69177013D01*
X50863103Y-69530170D01*
G37*
G36*
X51143784Y-74739232D02*
G01*
X50425610Y-74498084D01*
X51143784Y-74259571D01*
X51143784Y-74739232D01*
G37*
G36*
X50836748Y-71236655D02*
G01*
X50817805Y-71368759D01*
X50760977Y-71467261D01*
X50670876Y-71528536D01*
X50552114Y-71548961D01*
X50430881Y-71529689D01*
X50338639Y-71471873D01*
X50280329Y-71374195D01*
X50260892Y-71235337D01*
X50260892Y-70917760D01*
X50836748Y-70917760D01*
X50836748Y-71236655D01*
G37*
%TO.C,G\u002A\u002A\u002A*%
G36*
X55455347Y-40375599D02*
G01*
X55481347Y-40492094D01*
X55479729Y-40608563D01*
X55459446Y-40819647D01*
X54947607Y-40851637D01*
X54435768Y-40883627D01*
X54415720Y-41091561D01*
X54395671Y-41299496D01*
X53983856Y-41299496D01*
X53572040Y-41299496D01*
X53572040Y-41105548D01*
X53548016Y-40963039D01*
X53476071Y-40874774D01*
X53472606Y-40873357D01*
X53403005Y-40776524D01*
X53380101Y-40564345D01*
X53386792Y-40417434D01*
X53424211Y-40305929D01*
X53508061Y-40257280D01*
X53535358Y-40248704D01*
X53581491Y-40215643D01*
X53610913Y-40144784D01*
X53627335Y-40013591D01*
X53632551Y-39857026D01*
X54343730Y-39857026D01*
X54368766Y-40122258D01*
X54383711Y-40195395D01*
X54425861Y-40293900D01*
X54514696Y-40332894D01*
X54690811Y-40339798D01*
X54767198Y-40337777D01*
X54926821Y-40318142D01*
X55006298Y-40284376D01*
X54997243Y-40228771D01*
X54926483Y-40097960D01*
X54807514Y-39929841D01*
X54802877Y-39923911D01*
X54620466Y-39730883D01*
X54477715Y-39657772D01*
X54382758Y-39701008D01*
X54343730Y-39857026D01*
X53632551Y-39857026D01*
X53634467Y-39799526D01*
X53636020Y-39480052D01*
X53636037Y-39443373D01*
X53640205Y-39105109D01*
X53657791Y-38877649D01*
X53697571Y-38745315D01*
X53768322Y-38692431D01*
X53878821Y-38703318D01*
X54037845Y-38762301D01*
X54081431Y-38784284D01*
X54261584Y-38919624D01*
X54494119Y-39144383D01*
X54765087Y-39445459D01*
X54855412Y-39551682D01*
X55101762Y-39847119D01*
X55276543Y-40070995D01*
X55390742Y-40241194D01*
X55411498Y-40284376D01*
X55455347Y-40375599D01*
G37*
G36*
X53148594Y-39747171D02*
G01*
X53127405Y-39976355D01*
X53083952Y-40150277D01*
X53011577Y-40307808D01*
X52911356Y-40483322D01*
X52788317Y-40661110D01*
X52657269Y-40789206D01*
X52483252Y-40907279D01*
X52259445Y-41003190D01*
X51921382Y-41043337D01*
X51570968Y-41003351D01*
X51272891Y-40869043D01*
X51029583Y-40629980D01*
X50826283Y-40275818D01*
X50757996Y-40072563D01*
X50711012Y-39779856D01*
X51563967Y-39779856D01*
X51588017Y-40024854D01*
X51675446Y-40238784D01*
X51786444Y-40353833D01*
X51908564Y-40403778D01*
X51941462Y-40401002D01*
X52077770Y-40322064D01*
X52179105Y-40159937D01*
X52238934Y-39949151D01*
X52250727Y-39724234D01*
X52207953Y-39519717D01*
X52104079Y-39370130D01*
X51989643Y-39288683D01*
X51908564Y-39252141D01*
X51833657Y-39284959D01*
X51713049Y-39370130D01*
X51697919Y-39383476D01*
X51601275Y-39550495D01*
X51563967Y-39779856D01*
X50711012Y-39779856D01*
X50702354Y-39725914D01*
X50692734Y-39349511D01*
X50729547Y-38992909D01*
X50813208Y-38705665D01*
X50881297Y-38576076D01*
X51124456Y-38285867D01*
X51437021Y-38090529D01*
X51796724Y-38001083D01*
X52181299Y-38028549D01*
X52284139Y-38054348D01*
X52575274Y-38167995D01*
X52794195Y-38341624D01*
X52982849Y-38605424D01*
X53023993Y-38677546D01*
X53093779Y-38826964D01*
X53133424Y-38982906D01*
X53150877Y-39185799D01*
X53154091Y-39476070D01*
X53149059Y-39724234D01*
X53148594Y-39747171D01*
G37*
G36*
X57096796Y-38101431D02*
G01*
X57325070Y-38108158D01*
X57457759Y-38124015D01*
X57514789Y-38152059D01*
X57516086Y-38195347D01*
X57512701Y-38208952D01*
X57498989Y-38331897D01*
X57483250Y-38556433D01*
X57466631Y-38862092D01*
X57450281Y-39228402D01*
X57435348Y-39634894D01*
X57391005Y-40979597D01*
X56537190Y-40979597D01*
X56213398Y-40977623D01*
X55955525Y-40969640D01*
X55792781Y-40953836D01*
X55707839Y-40928426D01*
X55683375Y-40891624D01*
X55673099Y-40780192D01*
X55645436Y-40613953D01*
X55607496Y-40424254D01*
X55972608Y-40454532D01*
X56337720Y-40484809D01*
X56290668Y-39292657D01*
X56243616Y-38100504D01*
X56898048Y-38100504D01*
X57096796Y-38101431D01*
G37*
%TO.C,kibuzzard-64AFF827*%
G36*
X63239666Y-155447916D02*
G01*
X62115187Y-155447916D01*
X60880456Y-155447916D01*
X60258478Y-155447916D01*
X58413630Y-155447916D01*
X55878281Y-155447916D01*
X54059787Y-155447916D01*
X52143780Y-155447916D01*
X51556064Y-155447916D01*
X50431585Y-155447916D01*
X50431585Y-153165575D01*
X51556064Y-153165575D01*
X51556064Y-153485788D01*
X52143780Y-153485788D01*
X52143780Y-155084217D01*
X52539105Y-155084217D01*
X52539105Y-153485788D01*
X53118914Y-153485788D01*
X53118914Y-153165575D01*
X53324483Y-153165575D01*
X53324483Y-154429296D01*
X53346372Y-154624616D01*
X53412040Y-154790652D01*
X53521486Y-154927405D01*
X53668855Y-155029164D01*
X53848288Y-155090220D01*
X54059787Y-155110572D01*
X54268431Y-155090806D01*
X54446327Y-155031507D01*
X54593475Y-154932676D01*
X54703727Y-154799291D01*
X54770932Y-154636329D01*
X54795091Y-154443791D01*
X54795091Y-154168382D01*
X55063912Y-154168382D01*
X55075039Y-154349499D01*
X55108422Y-154515096D01*
X55164061Y-154665173D01*
X55240417Y-154796655D01*
X55335954Y-154906467D01*
X55450671Y-154994610D01*
X55581055Y-155059033D01*
X55723591Y-155097687D01*
X55878281Y-155110572D01*
X56031579Y-155097834D01*
X56173456Y-155059619D01*
X56303914Y-154995928D01*
X56419290Y-154908590D01*
X56515925Y-154799437D01*
X56593818Y-154668467D01*
X56651067Y-154519488D01*
X56685768Y-154356307D01*
X56697920Y-154178924D01*
X56697920Y-154168382D01*
X57599261Y-154168382D01*
X57610388Y-154349499D01*
X57643771Y-154515096D01*
X57699410Y-154665173D01*
X57775766Y-154796655D01*
X57871303Y-154906467D01*
X57986020Y-154994610D01*
X58116404Y-155059033D01*
X58258941Y-155097687D01*
X58413630Y-155110572D01*
X58566928Y-155097834D01*
X58708805Y-155059619D01*
X58839263Y-154995928D01*
X58954639Y-154908590D01*
X59051274Y-154799437D01*
X59129167Y-154668467D01*
X59186416Y-154519488D01*
X59221117Y-154356307D01*
X59233270Y-154178924D01*
X59233270Y-154084046D01*
X59221922Y-153902709D01*
X59187880Y-153736453D01*
X59131144Y-153585278D01*
X59053690Y-153452771D01*
X58957494Y-153342519D01*
X58842557Y-153254523D01*
X58712319Y-153190465D01*
X58620296Y-153165575D01*
X59404577Y-153165575D01*
X59404577Y-153485788D01*
X60258478Y-153485788D01*
X60258478Y-153981261D01*
X59499455Y-153981261D01*
X59499455Y-154300156D01*
X60258478Y-154300156D01*
X60258478Y-155084217D01*
X60653803Y-155084217D01*
X60880456Y-155084217D01*
X62115187Y-155084217D01*
X62115187Y-153165575D01*
X61719862Y-153165575D01*
X61719862Y-154766640D01*
X60880456Y-154766640D01*
X60880456Y-155084217D01*
X60653803Y-155084217D01*
X60653803Y-153165575D01*
X59404577Y-153165575D01*
X58620296Y-153165575D01*
X58570222Y-153152031D01*
X58416265Y-153139220D01*
X58262308Y-153152031D01*
X58120211Y-153190465D01*
X57989973Y-153254523D01*
X57875036Y-153342519D01*
X57778841Y-153452771D01*
X57701386Y-153585278D01*
X57644650Y-153736306D01*
X57610608Y-153902123D01*
X57599261Y-154082728D01*
X57599261Y-154168382D01*
X56697920Y-154168382D01*
X56697920Y-154084046D01*
X56686573Y-153902709D01*
X56652531Y-153736453D01*
X56595795Y-153585278D01*
X56518341Y-153452771D01*
X56422145Y-153342519D01*
X56307208Y-153254523D01*
X56176970Y-153190465D01*
X56034873Y-153152031D01*
X55880916Y-153139220D01*
X55726959Y-153152031D01*
X55584862Y-153190465D01*
X55454624Y-153254523D01*
X55339687Y-153342519D01*
X55243492Y-153452771D01*
X55166037Y-153585278D01*
X55109301Y-153736306D01*
X55075259Y-153902123D01*
X55063912Y-154082728D01*
X55063912Y-154168382D01*
X54795091Y-154168382D01*
X54795091Y-153165575D01*
X54399766Y-153165575D01*
X54399766Y-154431931D01*
X54377200Y-154594838D01*
X54309500Y-154706682D01*
X54201939Y-154771416D01*
X54059787Y-154792995D01*
X53913599Y-154771087D01*
X53808426Y-154705364D01*
X53744268Y-154595826D01*
X53721125Y-154442473D01*
X53721125Y-153165575D01*
X53324483Y-153165575D01*
X53118914Y-153165575D01*
X51556064Y-153165575D01*
X50431585Y-153165575D01*
X50431585Y-152352084D01*
X51556064Y-152352084D01*
X62115187Y-152352084D01*
X63239666Y-152352084D01*
X64168415Y-152352084D01*
X63239666Y-155447916D01*
G37*
G36*
X58592514Y-153504730D02*
G01*
X58723301Y-153620857D01*
X58783478Y-153740113D01*
X58819936Y-153891435D01*
X58832674Y-154074821D01*
X58832674Y-154168382D01*
X58820668Y-154349645D01*
X58784649Y-154501626D01*
X58724618Y-154624323D01*
X58592844Y-154745885D01*
X58413630Y-154786406D01*
X58237710Y-154747368D01*
X58107912Y-154630253D01*
X58048467Y-154510264D01*
X58012448Y-154358503D01*
X57999857Y-154174970D01*
X57999857Y-154081410D01*
X58011863Y-153896340D01*
X58047881Y-153743481D01*
X58107912Y-153622833D01*
X58239028Y-153505224D01*
X58416265Y-153466021D01*
X58592514Y-153504730D01*
G37*
G36*
X56057165Y-153504730D02*
G01*
X56187952Y-153620857D01*
X56248129Y-153740113D01*
X56284587Y-153891435D01*
X56297325Y-154074821D01*
X56297325Y-154168382D01*
X56285319Y-154349645D01*
X56249300Y-154501626D01*
X56189269Y-154624323D01*
X56057494Y-154745885D01*
X55878281Y-154786406D01*
X55702361Y-154747368D01*
X55572563Y-154630253D01*
X55513118Y-154510264D01*
X55477099Y-154358503D01*
X55464507Y-154174970D01*
X55464507Y-154081410D01*
X55476514Y-153896340D01*
X55512532Y-153743481D01*
X55572563Y-153622833D01*
X55703679Y-153505224D01*
X55880916Y-153466021D01*
X56057165Y-153504730D01*
G37*
%TO.C,kibuzzard-6424498C*%
G36*
X64035962Y-121168888D02*
G01*
X63556301Y-121168888D01*
X63797449Y-120450715D01*
X64035962Y-121168888D01*
G37*
G36*
X67542931Y-122697916D02*
G01*
X66418452Y-122697916D01*
X65586953Y-122697916D01*
X64274475Y-122697916D01*
X61860358Y-122697916D01*
X59761184Y-122697916D01*
X58436846Y-122697916D01*
X56510297Y-122697916D01*
X55385818Y-122697916D01*
X54457069Y-122697916D01*
X55276708Y-119965783D01*
X56510297Y-119965783D01*
X56510297Y-121884425D01*
X56905622Y-121884425D01*
X57675187Y-120622022D01*
X57675187Y-121884425D01*
X58070512Y-121884425D01*
X58070512Y-119965783D01*
X58436846Y-119965783D01*
X58436846Y-121884425D01*
X58832171Y-121884425D01*
X59761184Y-121884425D01*
X61047307Y-121884425D01*
X61047307Y-119965783D01*
X61272642Y-119965783D01*
X61272642Y-120285996D01*
X61860358Y-120285996D01*
X61860358Y-121884425D01*
X62255683Y-121884425D01*
X62896109Y-121884425D01*
X63316471Y-121884425D01*
X63449564Y-121489101D01*
X64142700Y-121489101D01*
X64274475Y-121884425D01*
X64694836Y-121884425D01*
X64604578Y-121641960D01*
X64852966Y-121641960D01*
X64981776Y-121755451D01*
X65154731Y-121840281D01*
X65360300Y-121893156D01*
X65586953Y-121910780D01*
X65746181Y-121898701D01*
X65891792Y-121862463D01*
X66023786Y-121802066D01*
X66190152Y-121668809D01*
X66313691Y-121486465D01*
X66370720Y-121340488D01*
X66405641Y-121178405D01*
X66418452Y-121000216D01*
X66418452Y-120869759D01*
X66407691Y-120686811D01*
X66375406Y-120520994D01*
X66321598Y-120372308D01*
X66203330Y-120186835D01*
X66042235Y-120050778D01*
X65913608Y-119988917D01*
X65771071Y-119951800D01*
X65614625Y-119939428D01*
X65403639Y-119957510D01*
X65225743Y-120011758D01*
X65080937Y-120102170D01*
X64970100Y-120227136D01*
X64894109Y-120385047D01*
X64852966Y-120575901D01*
X65237749Y-120575901D01*
X65280082Y-120433254D01*
X65354370Y-120334753D01*
X65461602Y-120277431D01*
X65602766Y-120258323D01*
X65780332Y-120296208D01*
X65909801Y-120409864D01*
X65968514Y-120527290D01*
X66004093Y-120677514D01*
X66016539Y-120860534D01*
X66016539Y-120983085D01*
X66003801Y-121167863D01*
X65965586Y-121319843D01*
X65901895Y-121439026D01*
X65760566Y-121554659D01*
X65565869Y-121593203D01*
X65375124Y-121569483D01*
X65248291Y-121498325D01*
X65248291Y-121167570D01*
X65608037Y-121167570D01*
X65608037Y-120876347D01*
X64852966Y-120876347D01*
X64852966Y-121641960D01*
X64604578Y-121641960D01*
X63980617Y-119965783D01*
X63614282Y-119965783D01*
X62896109Y-121884425D01*
X62255683Y-121884425D01*
X62255683Y-120285996D01*
X62835493Y-120285996D01*
X62835493Y-119965783D01*
X61272642Y-119965783D01*
X61047307Y-119965783D01*
X59763820Y-119965783D01*
X59763820Y-120285996D01*
X60651982Y-120285996D01*
X60651982Y-120743255D01*
X59892959Y-120743255D01*
X59892959Y-121052926D01*
X60651982Y-121052926D01*
X60651982Y-121566848D01*
X59761184Y-121566848D01*
X59761184Y-121884425D01*
X58832171Y-121884425D01*
X58832171Y-119965783D01*
X58436846Y-119965783D01*
X58070512Y-119965783D01*
X57675187Y-119965783D01*
X56904304Y-121230822D01*
X56904304Y-119965783D01*
X56510297Y-119965783D01*
X55276708Y-119965783D01*
X55385818Y-119602084D01*
X56510297Y-119602084D01*
X66418452Y-119602084D01*
X67542931Y-119602084D01*
X67542931Y-122697916D01*
G37*
%TD*%
D12*
%TO.C,Ref\u002A\u002A*%
X62080000Y-37300000D03*
%TD*%
%TO.C,Ref\u002A\u002A*%
X56780000Y-159800000D03*
%TD*%
D13*
%TO.C,Ref\u002A\u002A*%
X59400000Y-110000000D03*
%TD*%
%TO.C,Ref\u002A\u002A*%
X59400000Y-91000000D03*
%TD*%
%TO.C,Ref\u002A\u002A*%
X59400000Y-54000000D03*
%TD*%
%TO.C,Ref\u002A\u002A*%
X59400000Y-72000000D03*
%TD*%
G36*
X58342121Y-44020002D02*
G01*
X58388614Y-44073658D01*
X58400000Y-44126000D01*
X58400000Y-46374000D01*
X58379998Y-46442121D01*
X58326342Y-46488614D01*
X58274000Y-46500000D01*
X55726000Y-46500000D01*
X55657879Y-46479998D01*
X55611386Y-46426342D01*
X55600000Y-46374000D01*
X55600000Y-44126000D01*
X55620002Y-44057879D01*
X55673658Y-44011386D01*
X55726000Y-44000000D01*
X58274000Y-44000000D01*
X58342121Y-44020002D01*
G37*
G36*
X67742121Y-44020002D02*
G01*
X67788614Y-44073658D01*
X67800000Y-44126000D01*
X67800000Y-46374000D01*
X67779998Y-46442121D01*
X67726342Y-46488614D01*
X67674000Y-46500000D01*
X65126000Y-46500000D01*
X65057879Y-46479998D01*
X65011386Y-46426342D01*
X65000000Y-46374000D01*
X65000000Y-44126000D01*
X65020002Y-44057879D01*
X65073658Y-44011386D01*
X65126000Y-44000000D01*
X67674000Y-44000000D01*
X67742121Y-44020002D01*
G37*
G36*
X63042121Y-44020002D02*
G01*
X63088614Y-44073658D01*
X63100000Y-44126000D01*
X63100000Y-46374000D01*
X63079998Y-46442121D01*
X63026342Y-46488614D01*
X62974000Y-46500000D01*
X60426000Y-46500000D01*
X60357879Y-46479998D01*
X60311386Y-46426342D01*
X60300000Y-46374000D01*
X60300000Y-44126000D01*
X60320002Y-44057879D01*
X60373658Y-44011386D01*
X60426000Y-44000000D01*
X62974000Y-44000000D01*
X63042121Y-44020002D01*
G37*
G36*
X53642121Y-44020002D02*
G01*
X53688614Y-44073658D01*
X53700000Y-44126000D01*
X53700000Y-46374000D01*
X53679998Y-46442121D01*
X53626342Y-46488614D01*
X53574000Y-46500000D01*
X51026000Y-46500000D01*
X50957879Y-46479998D01*
X50911386Y-46426342D01*
X50900000Y-46374000D01*
X50900000Y-44126000D01*
X50920002Y-44057879D01*
X50973658Y-44011386D01*
X51026000Y-44000000D01*
X53574000Y-44000000D01*
X53642121Y-44020002D01*
G37*
G36*
X68343039Y-137619685D02*
G01*
X68388794Y-137672489D01*
X68400000Y-137724000D01*
X68400000Y-152276000D01*
X68380315Y-152343039D01*
X68327511Y-152388794D01*
X68276000Y-152400000D01*
X50524000Y-152400000D01*
X50456961Y-152380315D01*
X50411206Y-152327511D01*
X50400000Y-152276000D01*
X50400000Y-138495000D01*
X51335000Y-138495000D01*
X51335000Y-151705000D01*
X67465000Y-151705000D01*
X67465000Y-138495000D01*
X51335000Y-138495000D01*
X50400000Y-138495000D01*
X50400000Y-137724000D01*
X50419685Y-137656961D01*
X50472489Y-137611206D01*
X50524000Y-137600000D01*
X68276000Y-137600000D01*
X68343039Y-137619685D01*
G37*
M02*
