%TF.GenerationSoftware,KiCad,Pcbnew,7.0.7*%
%TF.CreationDate,2023-08-25T17:49:50+01:00*%
%TF.ProjectId,L4O_Panel2,4c344f5f-5061-46e6-956c-322e6b696361,rev?*%
%TF.SameCoordinates,Original*%
%TF.FileFunction,Soldermask,Top*%
%TF.FilePolarity,Negative*%
%FSLAX46Y46*%
G04 Gerber Fmt 4.6, Leading zero omitted, Abs format (unit mm)*
G04 Created by KiCad (PCBNEW 7.0.7) date 2023-08-25 17:49:50*
%MOMM*%
%LPD*%
G01*
G04 APERTURE LIST*
%ADD10O,5.000000X3.200000*%
%ADD11C,7.000000*%
G04 APERTURE END LIST*
D10*
%TO.C,Ref\u002A\u002A*%
X62080000Y-37300000D03*
%TD*%
%TO.C,Ref\u002A\u002A*%
X56780000Y-159800000D03*
%TD*%
D11*
%TO.C,Ref\u002A\u002A*%
X59400000Y-110000000D03*
%TD*%
%TO.C,Ref\u002A\u002A*%
X59400000Y-91000000D03*
%TD*%
%TO.C,Ref\u002A\u002A*%
X59400000Y-54000000D03*
%TD*%
%TO.C,Ref\u002A\u002A*%
X59400000Y-72000000D03*
%TD*%
G36*
X58342121Y-44020002D02*
G01*
X58388614Y-44073658D01*
X58400000Y-44126000D01*
X58400000Y-46374000D01*
X58379998Y-46442121D01*
X58326342Y-46488614D01*
X58274000Y-46500000D01*
X55726000Y-46500000D01*
X55657879Y-46479998D01*
X55611386Y-46426342D01*
X55600000Y-46374000D01*
X55600000Y-44126000D01*
X55620002Y-44057879D01*
X55673658Y-44011386D01*
X55726000Y-44000000D01*
X58274000Y-44000000D01*
X58342121Y-44020002D01*
G37*
G36*
X67742121Y-44020002D02*
G01*
X67788614Y-44073658D01*
X67800000Y-44126000D01*
X67800000Y-46374000D01*
X67779998Y-46442121D01*
X67726342Y-46488614D01*
X67674000Y-46500000D01*
X65126000Y-46500000D01*
X65057879Y-46479998D01*
X65011386Y-46426342D01*
X65000000Y-46374000D01*
X65000000Y-44126000D01*
X65020002Y-44057879D01*
X65073658Y-44011386D01*
X65126000Y-44000000D01*
X67674000Y-44000000D01*
X67742121Y-44020002D01*
G37*
G36*
X63042121Y-44020002D02*
G01*
X63088614Y-44073658D01*
X63100000Y-44126000D01*
X63100000Y-46374000D01*
X63079998Y-46442121D01*
X63026342Y-46488614D01*
X62974000Y-46500000D01*
X60426000Y-46500000D01*
X60357879Y-46479998D01*
X60311386Y-46426342D01*
X60300000Y-46374000D01*
X60300000Y-44126000D01*
X60320002Y-44057879D01*
X60373658Y-44011386D01*
X60426000Y-44000000D01*
X62974000Y-44000000D01*
X63042121Y-44020002D01*
G37*
G36*
X51893473Y-93247468D02*
G01*
X51898542Y-93248071D01*
X51925511Y-93252414D01*
X51930334Y-93253388D01*
X52114643Y-93298298D01*
X52133314Y-93304452D01*
X52301378Y-93375057D01*
X52318843Y-93384084D01*
X52473905Y-93480531D01*
X52489262Y-93491806D01*
X52707503Y-93679476D01*
X52720553Y-93692508D01*
X52908718Y-93910674D01*
X52920055Y-93926077D01*
X53016882Y-94081445D01*
X53025982Y-94099036D01*
X53096603Y-94267278D01*
X53102785Y-94286093D01*
X53147470Y-94470662D01*
X53148443Y-94475524D01*
X53152490Y-94500995D01*
X53153076Y-94505983D01*
X53174858Y-94789856D01*
X53174769Y-94809922D01*
X53151073Y-95086620D01*
X53148016Y-95105329D01*
X53105877Y-95278683D01*
X53100425Y-95295677D01*
X53033621Y-95461723D01*
X53025785Y-95477757D01*
X52932474Y-95638279D01*
X52930092Y-95642057D01*
X52901689Y-95683701D01*
X52898003Y-95688572D01*
X52719472Y-95901791D01*
X52702053Y-95918859D01*
X52491970Y-96087608D01*
X52472555Y-96100406D01*
X52232959Y-96227871D01*
X52212586Y-96236476D01*
X51945672Y-96322072D01*
X51940330Y-96323526D01*
X51898895Y-96332837D01*
X51894246Y-96333697D01*
X51709123Y-96360693D01*
X51690282Y-96361987D01*
X51510311Y-96360611D01*
X51491492Y-96359029D01*
X51313852Y-96330345D01*
X51295432Y-96325904D01*
X51026886Y-96238977D01*
X51009300Y-96231753D01*
X50750842Y-96101593D01*
X50746685Y-96099296D01*
X50740546Y-96095590D01*
X50736359Y-96092826D01*
X50579563Y-95979931D01*
X50564320Y-95966965D01*
X50433068Y-95835662D01*
X50420109Y-95820414D01*
X50307288Y-95663595D01*
X50304528Y-95659411D01*
X50301493Y-95654381D01*
X50299203Y-95650235D01*
X50168853Y-95391346D01*
X50161654Y-95373832D01*
X50074426Y-95104846D01*
X50069994Y-95086542D01*
X50040976Y-94908489D01*
X50039368Y-94889825D01*
X50037503Y-94709385D01*
X50038724Y-94690692D01*
X50065053Y-94505044D01*
X50065886Y-94500432D01*
X50074796Y-94459915D01*
X50076249Y-94454491D01*
X50161085Y-94186902D01*
X50169766Y-94166230D01*
X50297158Y-93926286D01*
X50310166Y-93906579D01*
X50479458Y-93696713D01*
X50496885Y-93679061D01*
X50711301Y-93501511D01*
X50716278Y-93497793D01*
X50757314Y-93470231D01*
X50762928Y-93466876D01*
X51009124Y-93336824D01*
X51033362Y-93327129D01*
X51293232Y-93253787D01*
X51316100Y-93249597D01*
X51589936Y-93225628D01*
X51610328Y-93225527D01*
X51893473Y-93247468D01*
G37*
G36*
X53642121Y-44020002D02*
G01*
X53688614Y-44073658D01*
X53700000Y-44126000D01*
X53700000Y-46374000D01*
X53679998Y-46442121D01*
X53626342Y-46488614D01*
X53574000Y-46500000D01*
X51026000Y-46500000D01*
X50957879Y-46479998D01*
X50911386Y-46426342D01*
X50900000Y-46374000D01*
X50900000Y-44126000D01*
X50920002Y-44057879D01*
X50973658Y-44011386D01*
X51026000Y-44000000D01*
X53574000Y-44000000D01*
X53642121Y-44020002D01*
G37*
M02*
